<svg width="63" height="64" fill="none" xmlns="http://www.w3.org/2000/svg"><path fill-rule="evenodd" clip-rule="evenodd" d="M1.62.68C.12 1.55 0 4.05 0 32.16V62.7l2.28 1.03c2.08.95 4.06-.1 22.75-12.06 11.26-7.2 20.64-13.1 20.85-13.1.2 0 .5 5.53.63 12.28l.26 12.27h15.75V1.07H46.77l-.46 12.33-.46 12.33-20.32-13.02C4.5-.8 4.3-.9 1.63.68Zm27.45 17.7c10.12 6.5 18.77 11.6 19.21 11.32.45-.27.8-6.2.8-13.2V3.82H60.2v56.56H49.1v-12.7c0-6.98-.39-12.93-.86-13.22-.47-.3-10.55 5.7-22.4 13.32-11.86 7.62-21.9 13.64-22.3 13.39-.89-.55-1.03-57.2-.15-58.08.7-.7 1.13-.44 25.69 15.3Zm22.8-8.05c0 .92.92 1.39 2.77 1.39 1.86 0 2.78-.47 2.78-1.4 0-.92-.92-1.38-2.78-1.38-1.85 0-2.77.46-2.77 1.39Zm0 7.47c0 1.03.72 1.36 2.47 1.16 3.6-.43 3.92-2.61.38-2.61-1.97 0-2.85.44-2.85 1.45Zm.23 7.11c.2.64 1.36 1.16 2.54 1.16 1.2 0 2.34-.52 2.55-1.16.26-.76-.61-1.15-2.55-1.15-1.93 0-2.8.39-2.54 1.15Zm.21 6.28c-.36.59-.23 1.49.28 2 1.2 1.2 5.05.02 4.58-1.4-.48-1.48-4.05-1.9-4.86-.6Zm-18.27 2.83c-.9.52-1.62 1.34-1.62 1.82 0 1.26 3.12 1.1 4.44-.23 2.38-2.38.43-3.48-2.82-1.6Zm-14.81 9.44c-8 5.11-10.97 8.08-8.09 8.08 1.88 0 19.51-12.07 18.96-12.97-.88-1.42-1.25-1.25-10.87 4.9Zm33.3-5.23c-1.38 1.37-.56 2.2 2.2 2.2 1.86 0 2.72-.4 2.47-1.16-.44-1.31-3.68-2.04-4.68-1.04Zm-.66 8.22c0 .92.92 1.39 2.77 1.39 1.86 0 2.78-.47 2.78-1.4 0-.92-.92-1.38-2.78-1.38-1.85 0-2.77.46-2.77 1.39Zm0 7.47c0 1.03.72 1.36 2.47 1.16 3.6-.43 3.92-2.61.38-2.61-1.97 0-2.85.45-2.85 1.45Z" fill="#fff"/></svg>