<svg width="43" height="64" fill="none" xmlns="http://www.w3.org/2000/svg"><path fill-rule="evenodd" clip-rule="evenodd" d="M.82.7C-.81 2.31.22 62.18 1.9 63.07c2.64 1.42 11.63 1.1 13.19-.45 1.36-1.37 2.12-57.76.82-61.16C15.37.07 2.1-.61.8.69Zm26.35.74c-.3.76-.53 14.53-.53 30.61 0 33.84-.49 31.91 7.98 31.91 8.84 0 8.25 2.42 7.99-32.77L42.38.55 35.04.3C28.9.1 27.6.3 27.17 1.44Zm-13.3 30.18v28.94H2.8V2.68h11.07v28.94Zm26.39 0v28.94H29.19V2.68h11.07v28.94ZM5.92 4.1C4.7 5.32 5.47 6.08 7.91 6.08c1.7 0 2.55-.42 2.55-1.27 0-1.3-3.42-1.83-4.54-.71Zm.03 6.78c-.97.97.3 2.01 2.44 2.01 1.28 0 2.07-.49 2.07-1.28 0-1.27-3.42-1.82-4.51-.73Zm-.39 7.33c.55 1.65 4.9 1.9 4.9.27 0-.92-.8-1.33-2.62-1.33-1.72 0-2.5.37-2.28 1.06Zm0 6.81c.55 1.65 4.9 1.9 4.9.27 0-.92-.8-1.33-2.62-1.33-1.72 0-2.5.37-2.28 1.06Zm.2 5.8c-.73 1.16 1.16 2.6 3 2.28.7-.13 1.28-.8 1.28-1.5 0-1.54-3.43-2.17-4.29-.79Zm.16 6.47c-1.22 1.22-.45 1.99 1.99 1.99 1.7 0 2.55-.43 2.55-1.28 0-1.29-3.42-1.82-4.54-.7Zm.03 6.79c-.97.96.3 2 2.44 2 1.28 0 2.07-.48 2.07-1.27 0-1.27-3.42-1.83-4.51-.73Zm0 6.8c-.97.97.3 2.02 2.44 2.02 1.28 0 2.07-.5 2.07-1.28 0-1.27-3.42-1.83-4.51-.73Zm-.39 7.34c.55 1.65 4.9 1.9 4.9.27 0-.92-.8-1.33-2.62-1.33-1.72 0-2.5.36-2.28 1.06Z" fill="#fff"/></svg>