<svg width="61" height="64" fill="none" xmlns="http://www.w3.org/2000/svg"><path fill-rule="evenodd" clip-rule="evenodd" d="M1.88 1.11c-2.5 2.5-2.5 59.19 0 61.69.98.98 2.1 1.4 2.88 1.1C8 62.68 57.77 35.5 59.06 34.26c3.36-3.22 2.17-4.1-26.24-19.38C1.42-2.01 3.9-.91 1.88 1.1ZM5.9 4.35c.33 1.25.84 1.53 2.2 1.2 2.04-.5 49.5 24.8 49.5 26.37 0 1.95-46.07 25.95-49.13 25.6-2.21-.27-2.82-.07-2.82.9 0 .68.44 1.25.97 1.26.53.02.33.4-.43.84-3.58 2.08-3.61 1.8-3.61-28.41 0-15.6.23-28.6.51-28.88 1.02-1.03 2.4-.48 2.81 1.12Zm-.25 5.62c0 .84.74 1.2 2.38 1.2 2.94 0 2.68-1.8-.32-2.16-1.46-.17-2.05.1-2.05.96Zm0 6.21c0 .9.56 1.19 1.95 1.01 2.52-.31 2.52-1.7 0-2.02-1.39-.18-1.95.11-1.95 1.01Zm0 6.16c0 .9.56 1.18 1.95 1 2.52-.3 2.52-1.7 0-2.02-1.39-.17-1.95.12-1.95 1.02Zm0 6.2c0 .86.6 1.14 2.06.97 3-.36 3.26-2.17.32-2.17-1.64 0-2.37.37-2.37 1.2Zm.2 5.92c.17.53 1.13.96 2.11.96 1 0 1.94-.43 2.12-.96.21-.64-.5-.97-2.12-.97-1.6 0-2.32.33-2.11.97Zm38.39.28c-2.63 1.84-.91 3.06 2.11 1.5 1.32-.69 2.4-1.58 2.4-2 0-1.16-2.54-.88-4.51.5Zm-17.98 9c-10.57 5.5-14.3 8.22-11.26 8.22 1.8 0 25.29-12.65 25.29-13.62 0-1.69-1.52-1.1-14.03 5.4ZM6.2 39.36c-1.14 1.15-.46 1.83 1.83 1.83 1.55 0 2.26-.33 2.05-.96-.36-1.1-3.05-1.7-3.88-.87Zm-.54 6.78c0 .84.73 1.2 2.37 1.2 2.94 0 2.68-1.8-.32-2.16-1.46-.17-2.05.1-2.05.96Zm0 6.2c0 .9.55 1.2 1.94 1.02 2.52-.31 2.52-1.7 0-2.02-1.39-.18-1.95.11-1.95 1Z" fill="#fff"/></svg>