<svg width="64" height="64" fill="none" xmlns="http://www.w3.org/2000/svg"><path fill-rule="evenodd" clip-rule="evenodd" d="M37.46 12.27C26.26 19.46 16.9 25.33 16.7 25.33c-.21 0-.38-5.68-.38-12.63V.07L8.17.34 0 .6v62.52h15.86l.26-12.37c.15-6.8.45-12.36.68-12.36.23 0 9.7 5.93 21.02 13.19 18.75 12 20.82 13.1 22.89 12.15l2.28-1.04V32.07c0-39.73 2.51-37.78-25.53-19.8Zm22.73 19.6c0 15.85-.33 29.02-.73 29.27-.4.24-10.5-5.83-22.44-13.5-11.94-7.68-22.11-13.72-22.6-13.41-.5.3-.89 6.24-.89 13.34v12.79H2.33V3.37h11.2v12.8c0 7.03.36 13.01.8 13.29.45.27 10.62-5.77 22.6-13.42C48.9 8.4 59.02 2.34 59.43 2.6c.41.25.75 13.43.75 29.28ZM5.13 9.94c0 .93.94 1.4 2.8 1.4 1.87 0 2.8-.47 2.8-1.4 0-.94-.93-1.4-2.8-1.4-1.86 0-2.8.46-2.8 1.4Zm36.04 8.49c-6.49 4.29-8.93 6.4-8.23 7.09 1.16 1.16 19.76-10.2 19.77-12.08.02-2.14-2.24-1.16-11.54 4.99ZM5.36 17.17c.6 1.81 5.37 2.07 5.37.3 0-1.02-.89-1.47-2.88-1.47-1.88 0-2.74.4-2.49 1.17Zm0 7.46c.22.65 1.37 1.17 2.57 1.17 1.2 0 2.35-.52 2.57-1.17.25-.77-.62-1.16-2.57-1.16-1.95 0-2.82.4-2.56 1.16Zm21.3 3.18c-2.67 1.88-1.21 3.8 1.7 2.24 1.08-.58 1.97-1.43 1.97-1.9 0-1.64-1.6-1.79-3.66-.34Zm-21.1 3.17c-.78 1.28 1.29 2.86 3.3 2.5.77-.13 1.4-.86 1.4-1.63 0-1.69-3.75-2.38-4.7-.87Zm.2 7.1c-1.34 1.34-.5 2.18 2.17 2.18 1.87 0 2.8-.46 2.8-1.4 0-1.4-3.75-2-4.98-.77Zm0 7.47c-1.34 1.34-.5 2.18 2.17 2.18 1.87 0 2.8-.47 2.8-1.4 0-1.41-3.75-2-4.98-.78Zm-.4 8.01c.6 1.81 5.37 2.08 5.37.3 0-1.01-.89-1.46-2.88-1.46-1.88 0-2.74.4-2.49 1.16Z" fill="#fff"/></svg>