<svg width="64" height="64" viewBox="0 0 64 64" fill="none" xmlns="http://www.w3.org/2000/svg">
<path fill-rule="evenodd" clip-rule="evenodd" d="M1.30193 1.41972C-0.506989 3.41819 -0.39664 61.0543 1.41972 62.6981C3.41819 64.507 61.0543 64.3966 62.6981 62.5803C64.507 60.5818 64.3966 2.94566 62.5803 1.30193C60.5818 -0.506989 2.94566 -0.39664 1.30193 1.41972ZM61.1105 32V61.1105H32H2.88947V32V2.88947H32H61.1105V32ZM5.59742 6.9514C5.59742 7.85383 6.04897 8.30538 6.9514 8.30538C7.85383 8.30538 8.30538 7.85383 8.30538 6.9514C8.30538 6.04897 7.85383 5.59742 6.9514 5.59742C6.04897 5.59742 5.59742 6.04897 5.59742 6.9514ZM11.0133 6.9514C11.0133 7.85383 11.4649 8.30538 12.3673 8.30538C13.2697 8.30538 13.7213 7.85383 13.7213 6.9514C13.7213 6.04897 13.2697 5.59742 12.3673 5.59742C11.4649 5.59742 11.0133 6.04897 11.0133 6.9514ZM16.4293 6.9514C16.4293 7.70354 16.8808 8.30538 17.4447 8.30538C18.0087 8.30538 18.4602 7.70354 18.4602 6.9514C18.4602 6.19927 18.0087 5.59742 17.4447 5.59742C16.8808 5.59742 16.4293 6.19927 16.4293 6.9514ZM21.1682 6.9514C21.1682 7.85383 21.6197 8.30538 22.5222 8.30538C23.4246 8.30538 23.8761 7.85383 23.8761 6.9514C23.8761 6.04897 23.4246 5.59742 22.5222 5.59742C21.6197 5.59742 21.1682 6.04897 21.1682 6.9514ZM26.5841 6.9514C26.5841 7.85383 27.0356 8.30538 27.9381 8.30538C28.8405 8.30538 29.292 7.85383 29.292 6.9514C29.292 6.04897 28.8405 5.59742 27.9381 5.59742C27.0356 5.59742 26.5841 6.04897 26.5841 6.9514ZM47.6032 7.49164C44.2271 10.8678 45.5885 18.4602 49.5713 18.4602C50.0424 18.4602 50.2787 23.6067 50.2787 33.8874V49.314L46.8938 52.6482C43.6537 55.8395 42.5326 58.4026 44.376 58.4026C44.8533 58.4026 46.9858 56.6417 49.115 54.4903L52.9867 50.5779L52.9907 34.6883L52.9955 18.7987L55.0224 17.6451C60.6427 14.447 58.9184 6.6691 52.395 5.79375C50.0093 5.47353 49.4081 5.68679 47.6032 7.49164ZM54.4564 9.4258C56.9464 11.6788 55.3595 15.9215 52.0274 15.9215C49.6423 15.9215 48.0785 14.3577 48.0785 11.9726C48.0785 8.7021 51.9488 7.15653 54.4564 9.4258ZM17.5307 14.7151C7.49164 18.2937 2.71074 31.254 7.94454 40.7034C17.1685 57.358 42.3356 50.9895 42.3356 32C42.3356 19.2564 29.6299 10.4027 17.5307 14.7151ZM31.386 18.0039C45.8309 25.6282 40.4617 47.6161 24.1699 47.5559C10.4332 47.5051 3.16974 31.7549 12.2434 21.6915C17.0825 16.3236 25.2288 14.7544 31.386 18.0039ZM20.7972 24.8016C14.5831 27.5881 15.0617 37.3198 21.5182 39.4509C26.1549 40.9809 31.1653 37.7774 31.7434 32.9126C32.4455 27.0038 26.2029 22.378 20.7972 24.8016ZM28.1073 28.6922C31.9926 33.3716 25.7643 39.8226 20.9881 36.066C19.5434 34.9293 19.1372 34.0371 19.1372 32C19.1372 27.0573 24.9654 24.9079 28.1073 28.6922ZM5.59742 57.0486C5.59742 57.951 6.04897 58.4026 6.9514 58.4026C7.85383 58.4026 8.30538 57.951 8.30538 57.0486C8.30538 56.1462 7.85383 55.6946 6.9514 55.6946C6.04897 55.6946 5.59742 56.1462 5.59742 57.0486ZM11.0133 57.0486C11.0133 57.951 11.4649 58.4026 12.3673 58.4026C13.2697 58.4026 13.7213 57.951 13.7213 57.0486C13.7213 56.1462 13.2697 55.6946 12.3673 55.6946C11.4649 55.6946 11.0133 56.1462 11.0133 57.0486ZM16.4293 57.0486C16.4293 57.8007 16.8808 58.4026 17.4447 58.4026C18.0087 58.4026 18.4602 57.8007 18.4602 57.0486C18.4602 56.2965 18.0087 55.6946 17.4447 55.6946C16.8808 55.6946 16.4293 56.2965 16.4293 57.0486ZM21.1682 57.0486C21.1682 57.951 21.6197 58.4026 22.5222 58.4026C23.4246 58.4026 23.8761 57.951 23.8761 57.0486C23.8761 56.1462 23.4246 55.6946 22.5222 55.6946C21.6197 55.6946 21.1682 56.1462 21.1682 57.0486ZM26.5841 57.0486C26.5841 57.951 27.0356 58.4026 27.9381 58.4026C28.8405 58.4026 29.292 57.951 29.292 57.0486C29.292 56.1462 28.8405 55.6946 27.9381 55.6946C27.0356 55.6946 26.5841 56.1462 26.5841 57.0486Z" fill="black"/>
</svg>
