<svg width="512" height="512" viewBox="0 0 512 512" fill="none" xmlns="http://www.w3.org/2000/svg">
<path fill-rule="evenodd" clip-rule="evenodd" d="M10.4154 11.3578C-4.05591 27.3456 -3.17312 488.435 11.3578 501.585C27.3456 516.056 488.435 515.173 501.585 500.642C516.056 484.654 515.173 23.5652 500.642 10.4154C484.654 -4.05591 23.5652 -3.17312 10.4154 11.3578ZM488.884 256V488.884H256H23.1157V256V23.1157H256H488.884V256ZM44.7794 55.6112C44.7794 62.8306 48.3918 66.443 55.6112 66.443C62.8306 66.443 66.443 62.8306 66.443 55.6112C66.443 48.3918 62.8306 44.7794 55.6112 44.7794C48.3918 44.7794 44.7794 48.3918 44.7794 55.6112ZM88.1067 55.6112C88.1067 62.8306 91.7191 66.443 98.9385 66.443C106.158 66.443 109.77 62.8306 109.77 55.6112C109.77 48.3918 106.158 44.7794 98.9385 44.7794C91.7191 44.7794 88.1067 48.3918 88.1067 55.6112ZM131.434 55.6112C131.434 61.6283 135.046 66.443 139.558 66.443C144.069 66.443 147.682 61.6283 147.682 55.6112C147.682 49.5941 144.069 44.7794 139.558 44.7794C135.046 44.7794 131.434 49.5941 131.434 55.6112ZM169.345 55.6112C169.345 62.8306 172.958 66.443 180.177 66.443C187.397 66.443 191.009 62.8306 191.009 55.6112C191.009 48.3918 187.397 44.7794 180.177 44.7794C172.958 44.7794 169.345 48.3918 169.345 55.6112ZM212.673 55.6112C212.673 62.8306 216.285 66.443 223.505 66.443C230.724 66.443 234.336 62.8306 234.336 55.6112C234.336 48.3918 230.724 44.7794 223.505 44.7794C216.285 44.7794 212.673 48.3918 212.673 55.6112ZM380.826 59.9331C353.817 86.9423 364.708 147.682 396.57 147.682C400.34 147.682 402.23 188.854 402.23 271.1V394.512L375.15 421.185C349.23 446.716 340.261 467.221 355.008 467.221C358.827 467.221 375.887 453.134 392.92 435.922L423.893 404.624L423.926 277.507L423.964 150.39L440.179 141.161C485.142 115.576 471.348 53.3528 419.16 46.35C400.074 43.7883 395.265 45.4943 380.826 59.9331ZM435.651 75.4064C455.571 93.4305 442.876 127.372 416.219 127.372C397.139 127.372 384.628 114.861 384.628 95.781C384.628 69.6168 415.591 57.2522 435.651 75.4064ZM140.246 117.721C59.9331 146.349 21.6859 250.032 63.5564 325.627C137.348 458.864 338.685 407.916 338.685 256C338.685 154.051 237.039 83.2215 140.246 117.721ZM251.088 144.031C366.647 205.025 323.694 380.929 193.36 380.447C83.4652 380.041 25.3579 254.039 97.9474 173.532C136.66 130.589 201.83 118.035 251.088 144.031ZM166.377 198.413C116.665 220.705 120.494 298.558 172.145 315.608C209.239 327.848 249.322 302.219 253.947 263.301C259.564 216.031 209.624 179.024 166.377 198.413ZM224.859 229.538C255.94 266.973 206.114 318.581 167.905 288.528C156.347 279.435 153.098 272.296 153.098 256C153.098 216.458 199.723 199.263 224.859 229.538ZM44.7794 456.389C44.7794 463.608 48.3918 467.221 55.6112 467.221C62.8306 467.221 66.443 463.608 66.443 456.389C66.443 449.169 62.8306 445.557 55.6112 445.557C48.3918 445.557 44.7794 449.169 44.7794 456.389ZM88.1067 456.389C88.1067 463.608 91.7191 467.221 98.9385 467.221C106.158 467.221 109.77 463.608 109.77 456.389C109.77 449.169 106.158 445.557 98.9385 445.557C91.7191 445.557 88.1067 449.169 88.1067 456.389ZM131.434 456.389C131.434 462.406 135.046 467.221 139.558 467.221C144.069 467.221 147.682 462.406 147.682 456.389C147.682 450.372 144.069 445.557 139.558 445.557C135.046 445.557 131.434 450.372 131.434 456.389ZM169.345 456.389C169.345 463.608 172.958 467.221 180.177 467.221C187.397 467.221 191.009 463.608 191.009 456.389C191.009 449.169 187.397 445.557 180.177 445.557C172.958 445.557 169.345 449.169 169.345 456.389ZM212.673 456.389C212.673 463.608 216.285 467.221 223.505 467.221C230.724 467.221 234.336 463.608 234.336 456.389C234.336 449.169 230.724 445.557 223.505 445.557C216.285 445.557 212.673 449.169 212.673 456.389Z" fill="black"/>
</svg>
